<?xml version="1.0" encoding="UTF-8" standalone="no"?>
<!DOCTYPE svg PUBLIC "-//W3C//DTD SVG 1.1//EN"
 "http://www.w3.org/Graphics/SVG/1.1/DTD/svg11.dtd">
<!-- Generated by graphviz version 2.40.1 (20161225.0304)
 -->
<!-- Title: dependencies Pages: 1 -->
<svg width="1704pt" height="284pt"
 viewBox="0.00 0.00 1704.00 284.00" xmlns="http://www.w3.org/2000/svg" xmlns:xlink="http://www.w3.org/1999/xlink">
<g id="graph0" class="graph" transform="scale(1 1) rotate(0) translate(4 280)">
<title>dependencies</title>
<polygon fill="#ffffff" stroke="transparent" points="-4,4 -4,-280 1700,-280 1700,4 -4,4"/>
<text text-anchor="start" x="827.0091" y="-42.4" font-family="sans-serif" font-weight="bold" font-size="14.00" fill="#000000">Legend</text>
<polygon fill="#ffffb3" stroke="transparent" points="614,-10 614,-30 634,-30 634,-10 614,-10"/>
<text text-anchor="start" x="637.629" y="-15.4" font-family="sans-serif" font-size="14.00" fill="#000000"> &#160;Declarations</text>
<polygon fill="#8dd3c7" stroke="transparent" points="727,-10 727,-30 747,-30 747,-10 727,-10"/>
<text text-anchor="start" x="750.7251" y="-15.4" font-family="sans-serif" font-size="14.00" fill="#000000"> &#160;Module</text>
<polygon fill="#80b1d3" stroke="transparent" points="813,-10 813,-30 833,-30 833,-10 813,-10"/>
<text text-anchor="start" x="836.7812" y="-15.4" font-family="sans-serif" font-size="14.00" fill="#000000"> &#160;Bootstrap</text>
<polygon fill="#fdb462" stroke="transparent" points="910,-10 910,-30 930,-30 930,-10 910,-10"/>
<text text-anchor="start" x="933.6732" y="-15.4" font-family="sans-serif" font-size="14.00" fill="#000000"> &#160;Providers</text>
<polygon fill="#fb8072" stroke="transparent" points="1006,-10 1006,-30 1026,-30 1026,-10 1006,-10"/>
<text text-anchor="start" x="1029.7258" y="-15.4" font-family="sans-serif" font-size="14.00" fill="#000000"> &#160;Exports</text>
<g id="clust1" class="cluster">
<title>cluster_AppModule</title>
<polygon fill="none" stroke="#000000" stroke-dasharray="1,5" points="8,-70 8,-268 1688,-268 1688,-70 8,-70"/>
</g>
<g id="clust2" class="cluster">
<title>cluster_AppModule_declarations</title>
<polygon fill="none" stroke="#000000" points="16,-78 16,-130 1680,-130 1680,-78 16,-78"/>
</g>
<g id="clust17" class="cluster">
<title>cluster_AppModule_bootstrap</title>
<polygon fill="none" stroke="#000000" points="799,-208 799,-260 923,-260 923,-208 799,-208"/>
</g>
<!-- AboutComponent -->
<g id="node1" class="node">
<title>AboutComponent</title>
<polygon fill="#ffffb3" stroke="#000000" points="1672.3301,-122 1555.6699,-122 1555.6699,-86 1672.3301,-86 1672.3301,-122"/>
<text text-anchor="middle" x="1614" y="-99.8" font-family="Times,serif" font-size="14.00" fill="#000000">AboutComponent</text>
</g>
<!-- AppModule -->
<g id="node13" class="node">
<title>AppModule</title>
<polygon fill="#8dd3c7" stroke="#000000" points="902.6571,-187 899.6571,-191 878.6571,-191 875.6571,-187 819.3429,-187 819.3429,-151 902.6571,-151 902.6571,-187"/>
<text text-anchor="middle" x="861" y="-164.8" font-family="Times,serif" font-size="14.00" fill="#000000">AppModule</text>
</g>
<!-- AboutComponent&#45;&gt;AppModule -->
<g id="edge1" class="edge">
<title>AboutComponent&#45;&gt;AppModule</title>
<path fill="none" stroke="#000000" d="M1614,-122.2479C1614,-145.0179 1614,-181 1614,-181 1614,-181 912.8272,-181 912.8272,-181"/>
<polygon fill="#000000" stroke="#000000" points="912.8272,-177.5001 902.8272,-181 912.8272,-184.5001 912.8272,-177.5001"/>
</g>
<!-- AppComponent -->
<g id="node2" class="node">
<title>AppComponent</title>
<polygon fill="#ffffb3" stroke="#000000" points="1537.9399,-122 1432.0601,-122 1432.0601,-86 1537.9399,-86 1537.9399,-122"/>
<text text-anchor="middle" x="1485" y="-99.8" font-family="Times,serif" font-size="14.00" fill="#000000">AppComponent</text>
</g>
<!-- AppComponent&#45;&gt;AppModule -->
<g id="edge2" class="edge">
<title>AppComponent&#45;&gt;AppModule</title>
<path fill="none" stroke="#000000" d="M1485,-122.2843C1485,-143.3211 1485,-175 1485,-175 1485,-175 912.9113,-175 912.9113,-175"/>
<polygon fill="#000000" stroke="#000000" points="912.9114,-171.5001 902.9113,-175 912.9113,-178.5001 912.9114,-171.5001"/>
</g>
<!-- ContactComponent -->
<g id="node3" class="node">
<title>ContactComponent</title>
<polygon fill="#ffffb3" stroke="#000000" points="1414.3795,-122 1289.6205,-122 1289.6205,-86 1414.3795,-86 1414.3795,-122"/>
<text text-anchor="middle" x="1352" y="-99.8" font-family="Times,serif" font-size="14.00" fill="#000000">ContactComponent</text>
</g>
<!-- ContactComponent&#45;&gt;AppModule -->
<g id="edge3" class="edge">
<title>ContactComponent&#45;&gt;AppModule</title>
<path fill="none" stroke="#000000" d="M1352,-122.1061C1352,-141.3391 1352,-169 1352,-169 1352,-169 912.8624,-169 912.8624,-169"/>
<polygon fill="#000000" stroke="#000000" points="912.8624,-165.5001 902.8624,-169 912.8623,-172.5001 912.8624,-165.5001"/>
</g>
<!-- CoursesComponent -->
<g id="node4" class="node">
<title>CoursesComponent</title>
<polygon fill="#ffffb3" stroke="#000000" points="1271.4341,-122 1144.5659,-122 1144.5659,-86 1271.4341,-86 1271.4341,-122"/>
<text text-anchor="middle" x="1208" y="-99.8" font-family="Times,serif" font-size="14.00" fill="#000000">CoursesComponent</text>
</g>
<!-- CoursesComponent&#45;&gt;AppModule -->
<g id="edge4" class="edge">
<title>CoursesComponent&#45;&gt;AppModule</title>
<path fill="none" stroke="#000000" d="M1208,-122.0225C1208,-139.3734 1208,-163 1208,-163 1208,-163 912.8563,-163 912.8563,-163"/>
<polygon fill="#000000" stroke="#000000" points="912.8563,-159.5001 902.8563,-163 912.8563,-166.5001 912.8563,-159.5001"/>
</g>
<!-- FooterComponent -->
<g id="node5" class="node">
<title>FooterComponent</title>
<polygon fill="#ffffb3" stroke="#000000" points="1126.8809,-122 1009.1191,-122 1009.1191,-86 1126.8809,-86 1126.8809,-122"/>
<text text-anchor="middle" x="1068" y="-99.8" font-family="Times,serif" font-size="14.00" fill="#000000">FooterComponent</text>
</g>
<!-- FooterComponent&#45;&gt;AppModule -->
<g id="edge5" class="edge">
<title>FooterComponent&#45;&gt;AppModule</title>
<path fill="none" stroke="#000000" d="M1068,-122.2396C1068,-137.5706 1068,-157 1068,-157 1068,-157 912.8895,-157 912.8895,-157"/>
<polygon fill="#000000" stroke="#000000" points="912.8896,-153.5001 902.8895,-157 912.8895,-160.5001 912.8896,-153.5001"/>
</g>
<!-- HeaderComponent -->
<g id="node6" class="node">
<title>HeaderComponent</title>
<polygon fill="#ffffb3" stroke="#000000" points="990.7437,-122 869.2563,-122 869.2563,-86 990.7437,-86 990.7437,-122"/>
<text text-anchor="middle" x="930" y="-99.8" font-family="Times,serif" font-size="14.00" fill="#000000">HeaderComponent</text>
</g>
<!-- HeaderComponent&#45;&gt;AppModule -->
<g id="edge6" class="edge">
<title>HeaderComponent&#45;&gt;AppModule</title>
<path fill="none" stroke="#000000" d="M885.9783,-122.1061C885.9783,-122.1061 885.9783,-140.991 885.9783,-140.991"/>
<polygon fill="#000000" stroke="#000000" points="882.4783,-140.9909 885.9783,-150.991 889.4783,-140.991 882.4783,-140.9909"/>
</g>
<!-- HomeComponent -->
<g id="node7" class="node">
<title>HomeComponent</title>
<polygon fill="#ffffb3" stroke="#000000" points="850.5451,-122 735.4549,-122 735.4549,-86 850.5451,-86 850.5451,-122"/>
<text text-anchor="middle" x="793" y="-99.8" font-family="Times,serif" font-size="14.00" fill="#000000">HomeComponent</text>
</g>
<!-- HomeComponent&#45;&gt;AppModule -->
<g id="edge7" class="edge">
<title>HomeComponent&#45;&gt;AppModule</title>
<path fill="none" stroke="#000000" d="M834.972,-122.1061C834.972,-122.1061 834.972,-140.991 834.972,-140.991"/>
<polygon fill="#000000" stroke="#000000" points="831.472,-140.9909 834.972,-150.991 838.472,-140.991 831.472,-140.9909"/>
</g>
<!-- NavbarComponent -->
<g id="node8" class="node">
<title>NavbarComponent</title>
<polygon fill="#ffffb3" stroke="#000000" points="717.0297,-122 594.9703,-122 594.9703,-86 717.0297,-86 717.0297,-122"/>
<text text-anchor="middle" x="656" y="-99.8" font-family="Times,serif" font-size="14.00" fill="#000000">NavbarComponent</text>
</g>
<!-- NavbarComponent&#45;&gt;AppModule -->
<g id="edge8" class="edge">
<title>NavbarComponent&#45;&gt;AppModule</title>
<path fill="none" stroke="#000000" d="M656,-122.2396C656,-137.5706 656,-157 656,-157 656,-157 809.0205,-157 809.0205,-157"/>
<polygon fill="#000000" stroke="#000000" points="809.0205,-160.5001 819.0205,-157 809.0205,-153.5001 809.0205,-160.5001"/>
</g>
<!-- NotFoundComponent -->
<g id="node9" class="node">
<title>NotFoundComponent</title>
<polygon fill="#ffffb3" stroke="#000000" points="577.1122,-122 438.8878,-122 438.8878,-86 577.1122,-86 577.1122,-122"/>
<text text-anchor="middle" x="508" y="-99.8" font-family="Times,serif" font-size="14.00" fill="#000000">NotFoundComponent</text>
</g>
<!-- NotFoundComponent&#45;&gt;AppModule -->
<g id="edge9" class="edge">
<title>NotFoundComponent&#45;&gt;AppModule</title>
<path fill="none" stroke="#000000" d="M508,-122.0225C508,-139.3734 508,-163 508,-163 508,-163 809.1201,-163 809.1201,-163"/>
<polygon fill="#000000" stroke="#000000" points="809.1201,-166.5001 819.1201,-163 809.12,-159.5001 809.1201,-166.5001"/>
</g>
<!-- PortfolioComponent -->
<g id="node10" class="node">
<title>PortfolioComponent</title>
<polygon fill="#ffffb3" stroke="#000000" points="420.608,-122 289.392,-122 289.392,-86 420.608,-86 420.608,-122"/>
<text text-anchor="middle" x="355" y="-99.8" font-family="Times,serif" font-size="14.00" fill="#000000">PortfolioComponent</text>
</g>
<!-- PortfolioComponent&#45;&gt;AppModule -->
<g id="edge10" class="edge">
<title>PortfolioComponent&#45;&gt;AppModule</title>
<path fill="none" stroke="#000000" d="M355,-122.1061C355,-141.3391 355,-169 355,-169 355,-169 809.1614,-169 809.1614,-169"/>
<polygon fill="#000000" stroke="#000000" points="809.1614,-172.5001 819.1614,-169 809.1614,-165.5001 809.1614,-172.5001"/>
</g>
<!-- PostComponent -->
<g id="node11" class="node">
<title>PostComponent</title>
<polygon fill="#ffffb3" stroke="#000000" points="271.9512,-122 166.0488,-122 166.0488,-86 271.9512,-86 271.9512,-122"/>
<text text-anchor="middle" x="219" y="-99.8" font-family="Times,serif" font-size="14.00" fill="#000000">PostComponent</text>
</g>
<!-- PostComponent&#45;&gt;AppModule -->
<g id="edge11" class="edge">
<title>PostComponent&#45;&gt;AppModule</title>
<path fill="none" stroke="#000000" d="M219,-122.2843C219,-143.3211 219,-175 219,-175 219,-175 808.8766,-175 808.8766,-175"/>
<polygon fill="#000000" stroke="#000000" points="808.8766,-178.5001 818.8766,-175 808.8766,-171.5001 808.8766,-178.5001"/>
</g>
<!-- SidebarComponent -->
<g id="node12" class="node">
<title>SidebarComponent</title>
<polygon fill="#ffffb3" stroke="#000000" points="148.0954,-122 23.9046,-122 23.9046,-86 148.0954,-86 148.0954,-122"/>
<text text-anchor="middle" x="86" y="-99.8" font-family="Times,serif" font-size="14.00" fill="#000000">SidebarComponent</text>
</g>
<!-- SidebarComponent&#45;&gt;AppModule -->
<g id="edge12" class="edge">
<title>SidebarComponent&#45;&gt;AppModule</title>
<path fill="none" stroke="#000000" d="M86,-122.2479C86,-145.0179 86,-181 86,-181 86,-181 809.3326,-181 809.3326,-181"/>
<polygon fill="#000000" stroke="#000000" points="809.3327,-184.5001 819.3326,-181 809.3326,-177.5001 809.3327,-184.5001"/>
</g>
<!-- AppComponent  -->
<g id="node14" class="node">
<title>AppComponent </title>
<polygon fill="#80b1d3" stroke="#000000" points="915.439,-252 806.561,-252 806.561,-216 915.439,-216 915.439,-252"/>
<text text-anchor="middle" x="861" y="-229.8" font-family="Times,serif" font-size="14.00" fill="#000000">AppComponent </text>
</g>
<!-- AppModule&#45;&gt;AppComponent  -->
<g id="edge13" class="edge">
<title>AppModule&#45;&gt;AppComponent </title>
<path fill="none" stroke="#000000" stroke-dasharray="1,5" d="M861,-187.1061C861,-187.1061 861,-205.991 861,-205.991"/>
<polygon fill="#000000" stroke="#000000" points="857.5001,-205.9909 861,-215.991 864.5001,-205.991 857.5001,-205.9909"/>
</g>
</g>
</svg>
